<mxfile host="app.diagrams.net" agent="Mozilla/5.0 (Windows NT 10.0; Win64; x64) AppleWebKit/537.36 (KHTML, like Gecko) Chrome/130.0.0.0 YaBrowser/24.12.0.0 Safari/537.36" version="26.0.6">
  <diagram name="Страница — 1" id="kO691VLn5rPkBsITCD-d">
    <mxGraphModel dx="712" dy="769" grid="1" gridSize="10" guides="1" tooltips="1" connect="1" arrows="1" fold="1" page="1" pageScale="1" pageWidth="827" pageHeight="1169" math="0" shadow="0">
      <root>
        <mxCell id="0" />
        <mxCell id="1" parent="0" />
        <mxCell id="x_PddtxITYd9c36-Mj4Z-4" style="edgeStyle=orthogonalEdgeStyle;rounded=0;orthogonalLoop=1;jettySize=auto;html=1;" edge="1" parent="1" source="x_PddtxITYd9c36-Mj4Z-1" target="x_PddtxITYd9c36-Mj4Z-3">
          <mxGeometry relative="1" as="geometry" />
        </mxCell>
        <mxCell id="x_PddtxITYd9c36-Mj4Z-1" value="LeviCurve&lt;br&gt;Начало" style="ellipse;whiteSpace=wrap;html=1;" vertex="1" parent="1">
          <mxGeometry x="254" y="90" width="160" height="60" as="geometry" />
        </mxCell>
        <mxCell id="x_PddtxITYd9c36-Mj4Z-2" value="LeviCurve&lt;br&gt;Конец" style="ellipse;whiteSpace=wrap;html=1;" vertex="1" parent="1">
          <mxGeometry x="254" y="670" width="160" height="60" as="geometry" />
        </mxCell>
        <mxCell id="x_PddtxITYd9c36-Mj4Z-7" style="edgeStyle=orthogonalEdgeStyle;rounded=0;orthogonalLoop=1;jettySize=auto;html=1;" edge="1" parent="1" source="x_PddtxITYd9c36-Mj4Z-3" target="x_PddtxITYd9c36-Mj4Z-6">
          <mxGeometry relative="1" as="geometry" />
        </mxCell>
        <mxCell id="x_PddtxITYd9c36-Mj4Z-3" value="start_x, start_y, end_x, end_y, depth" style="shape=parallelogram;perimeter=parallelogramPerimeter;whiteSpace=wrap;html=1;fixedSize=1;" vertex="1" parent="1">
          <mxGeometry x="254" y="170" width="160" height="60" as="geometry" />
        </mxCell>
        <mxCell id="x_PddtxITYd9c36-Mj4Z-5" value="Передача параметров по значению" style="text;html=1;align=left;verticalAlign=middle;whiteSpace=wrap;rounded=0;" vertex="1" parent="1">
          <mxGeometry x="470" y="185" width="180" height="30" as="geometry" />
        </mxCell>
        <mxCell id="x_PddtxITYd9c36-Mj4Z-10" style="edgeStyle=orthogonalEdgeStyle;rounded=0;orthogonalLoop=1;jettySize=auto;html=1;" edge="1" parent="1" source="x_PddtxITYd9c36-Mj4Z-6" target="x_PddtxITYd9c36-Mj4Z-9">
          <mxGeometry relative="1" as="geometry" />
        </mxCell>
        <mxCell id="x_PddtxITYd9c36-Mj4Z-12" style="edgeStyle=orthogonalEdgeStyle;rounded=0;orthogonalLoop=1;jettySize=auto;html=1;exitX=1;exitY=0.5;exitDx=0;exitDy=0;" edge="1" parent="1" source="x_PddtxITYd9c36-Mj4Z-6" target="x_PddtxITYd9c36-Mj4Z-11">
          <mxGeometry relative="1" as="geometry" />
        </mxCell>
        <mxCell id="x_PddtxITYd9c36-Mj4Z-6" value="depth = 0" style="rhombus;whiteSpace=wrap;html=1;" vertex="1" parent="1">
          <mxGeometry x="263.75" y="250" width="140.5" height="70" as="geometry" />
        </mxCell>
        <mxCell id="x_PddtxITYd9c36-Mj4Z-17" style="edgeStyle=orthogonalEdgeStyle;rounded=0;orthogonalLoop=1;jettySize=auto;html=1;" edge="1" parent="1" source="x_PddtxITYd9c36-Mj4Z-9" target="x_PddtxITYd9c36-Mj4Z-2">
          <mxGeometry relative="1" as="geometry" />
        </mxCell>
        <mxCell id="x_PddtxITYd9c36-Mj4Z-9" value="&amp;nbsp; &amp;nbsp;Line(start_x, start_y,&amp;nbsp;&lt;div&gt;end_x, end_y)&lt;/div&gt;" style="shape=parallelogram;perimeter=parallelogramPerimeter;whiteSpace=wrap;html=1;fixedSize=1;" vertex="1" parent="1">
          <mxGeometry x="254" y="340" width="160" height="60" as="geometry" />
        </mxCell>
        <mxCell id="x_PddtxITYd9c36-Mj4Z-15" style="edgeStyle=orthogonalEdgeStyle;rounded=0;orthogonalLoop=1;jettySize=auto;html=1;" edge="1" parent="1" source="x_PddtxITYd9c36-Mj4Z-11" target="x_PddtxITYd9c36-Mj4Z-13">
          <mxGeometry relative="1" as="geometry" />
        </mxCell>
        <mxCell id="x_PddtxITYd9c36-Mj4Z-11" value="mid_p:=RotatePoint(&lt;div&gt;start_x, start_y, end_x, end_y)&lt;/div&gt;" style="shape=process;whiteSpace=wrap;html=1;backgroundOutline=1;align=left;" vertex="1" parent="1">
          <mxGeometry x="372.75" y="419" width="146.25" height="60" as="geometry" />
        </mxCell>
        <mxCell id="x_PddtxITYd9c36-Mj4Z-16" style="edgeStyle=orthogonalEdgeStyle;rounded=0;orthogonalLoop=1;jettySize=auto;html=1;" edge="1" parent="1" source="x_PddtxITYd9c36-Mj4Z-13" target="x_PddtxITYd9c36-Mj4Z-14">
          <mxGeometry relative="1" as="geometry" />
        </mxCell>
        <mxCell id="x_PddtxITYd9c36-Mj4Z-13" value="LeviCurve(start_x, start_y, mid_p.x, mid_p.y, depth - 1)" style="shape=process;whiteSpace=wrap;html=1;backgroundOutline=1;align=left;" vertex="1" parent="1">
          <mxGeometry x="372.75" y="499" width="146.25" height="60" as="geometry" />
        </mxCell>
        <mxCell id="x_PddtxITYd9c36-Mj4Z-18" style="edgeStyle=orthogonalEdgeStyle;rounded=0;orthogonalLoop=1;jettySize=auto;html=1;exitX=0.5;exitY=1;exitDx=0;exitDy=0;" edge="1" parent="1" source="x_PddtxITYd9c36-Mj4Z-14" target="x_PddtxITYd9c36-Mj4Z-2">
          <mxGeometry relative="1" as="geometry">
            <Array as="points">
              <mxPoint x="446" y="650" />
              <mxPoint x="334" y="650" />
            </Array>
          </mxGeometry>
        </mxCell>
        <mxCell id="x_PddtxITYd9c36-Mj4Z-14" value="LeviCurve(mid_p.x, mid_p.y, end_x, end_y, depth - 1)" style="shape=process;whiteSpace=wrap;html=1;backgroundOutline=1;align=left;" vertex="1" parent="1">
          <mxGeometry x="372.75" y="579" width="146.25" height="60" as="geometry" />
        </mxCell>
        <mxCell id="x_PddtxITYd9c36-Mj4Z-19" value="да" style="text;html=1;align=center;verticalAlign=middle;whiteSpace=wrap;rounded=0;" vertex="1" parent="1">
          <mxGeometry x="311" y="316" width="20" height="10" as="geometry" />
        </mxCell>
        <mxCell id="x_PddtxITYd9c36-Mj4Z-20" value="нет" style="text;html=1;align=center;verticalAlign=middle;whiteSpace=wrap;rounded=0;" vertex="1" parent="1">
          <mxGeometry x="397" y="272" width="20" height="10" as="geometry" />
        </mxCell>
        <mxCell id="x_PddtxITYd9c36-Mj4Z-21" value="" style="shape=partialRectangle;whiteSpace=wrap;html=1;bottom=1;right=1;left=1;top=0;fillColor=none;routingCenterX=-0.5;rotation=90;" vertex="1" parent="1">
          <mxGeometry x="445" y="195" width="40" height="10" as="geometry" />
        </mxCell>
        <mxCell id="x_PddtxITYd9c36-Mj4Z-24" value="" style="endArrow=none;dashed=1;html=1;rounded=0;entryX=0.5;entryY=1;entryDx=0;entryDy=0;" edge="1" parent="1" source="x_PddtxITYd9c36-Mj4Z-3" target="x_PddtxITYd9c36-Mj4Z-21">
          <mxGeometry width="50" height="50" relative="1" as="geometry">
            <mxPoint x="320" y="450" as="sourcePoint" />
            <mxPoint x="370" y="400" as="targetPoint" />
          </mxGeometry>
        </mxCell>
        <mxCell id="x_PddtxITYd9c36-Mj4Z-28" value="База рекурсии" style="text;html=1;align=left;verticalAlign=middle;whiteSpace=wrap;rounded=0;" vertex="1" parent="1">
          <mxGeometry x="470.25" y="355" width="180" height="30" as="geometry" />
        </mxCell>
        <mxCell id="x_PddtxITYd9c36-Mj4Z-29" value="" style="shape=partialRectangle;whiteSpace=wrap;html=1;bottom=1;right=1;left=1;top=0;fillColor=none;routingCenterX=-0.5;rotation=90;" vertex="1" parent="1">
          <mxGeometry x="445.25" y="365" width="40" height="10" as="geometry" />
        </mxCell>
        <mxCell id="x_PddtxITYd9c36-Mj4Z-30" value="" style="endArrow=none;dashed=1;html=1;rounded=0;entryX=0.5;entryY=1;entryDx=0;entryDy=0;" edge="1" parent="1" target="x_PddtxITYd9c36-Mj4Z-29">
          <mxGeometry width="50" height="50" relative="1" as="geometry">
            <mxPoint x="404.25" y="370" as="sourcePoint" />
            <mxPoint x="370.25" y="570" as="targetPoint" />
          </mxGeometry>
        </mxCell>
        <mxCell id="x_PddtxITYd9c36-Mj4Z-34" value="" style="endArrow=none;dashed=1;html=1;rounded=0;" edge="1" parent="1">
          <mxGeometry width="50" height="50" relative="1" as="geometry">
            <mxPoint x="530" y="650" as="sourcePoint" />
            <mxPoint x="530" y="490" as="targetPoint" />
          </mxGeometry>
        </mxCell>
        <mxCell id="x_PddtxITYd9c36-Mj4Z-35" value="Декомпозиция" style="text;html=1;align=left;verticalAlign=middle;whiteSpace=wrap;rounded=0;" vertex="1" parent="1">
          <mxGeometry x="556.25" y="555" width="94" height="30" as="geometry" />
        </mxCell>
        <mxCell id="x_PddtxITYd9c36-Mj4Z-36" value="" style="shape=partialRectangle;whiteSpace=wrap;html=1;bottom=1;right=1;left=1;top=0;fillColor=none;routingCenterX=-0.5;rotation=90;" vertex="1" parent="1">
          <mxGeometry x="531.25" y="565" width="40" height="10" as="geometry" />
        </mxCell>
        <mxCell id="x_PddtxITYd9c36-Mj4Z-37" value="" style="endArrow=none;dashed=1;html=1;rounded=0;entryX=0.5;entryY=1;entryDx=0;entryDy=0;" edge="1" parent="1" target="x_PddtxITYd9c36-Mj4Z-36">
          <mxGeometry width="50" height="50" relative="1" as="geometry">
            <mxPoint x="530" y="570" as="sourcePoint" />
            <mxPoint x="496" y="770" as="targetPoint" />
          </mxGeometry>
        </mxCell>
      </root>
    </mxGraphModel>
  </diagram>
</mxfile>
